<svg width="116" height="116" viewBox="0 0 116 116" fill="none" xmlns="http://www.w3.org/2000/svg">
<path d="M48.0992 86.7508L31.0957 66.5867L15.4062 85.1988V89.7188H100.594V86.275L74.5504 55.3945L48.0992 86.7508Z" fill="#C3CED9"/>
<path d="M15.4062 73.9387L30.4047 56.1535C30.7672 55.723 31.4242 55.723 31.7867 56.1535L48.0992 75.4906L73.8594 44.95C74.2219 44.5195 74.8789 44.5195 75.2414 44.95L100.594 75.0148V26.2812H15.4062V73.9387ZM34.4375 31.7188C35.7466 31.7188 37.0429 31.9766 38.2524 32.4776C39.4618 32.9786 40.5608 33.7128 41.4865 34.6385C42.4122 35.5642 43.1464 36.6632 43.6474 37.8726C44.1484 39.0821 44.4063 40.3784 44.4063 41.6875C44.4063 42.9966 44.1484 44.2929 43.6474 45.5024C43.1464 46.7118 42.4122 47.8108 41.4865 48.7365C40.5608 49.6622 39.4618 50.3964 38.2524 50.8974C37.0429 51.3984 35.7466 51.6563 34.4375 51.6563C31.7936 51.6563 29.258 50.606 27.3885 48.7365C25.519 46.867 24.4688 44.3314 24.4688 41.6875C24.4688 39.0436 25.519 36.508 27.3885 34.6385C29.258 32.769 31.7936 31.7188 34.4375 31.7188Z" fill="#C3CED9"/>
<path d="M31.2656 41.6875C31.2656 42.5287 31.5998 43.3355 32.1946 43.9304C32.7895 44.5252 33.5963 44.8594 34.4375 44.8594C35.2787 44.8594 36.0855 44.5252 36.6804 43.9304C37.2752 43.3355 37.6094 42.5287 37.6094 41.6875C37.6094 40.8463 37.2752 40.0395 36.6804 39.4446C36.0855 38.8498 35.2787 38.5156 34.4375 38.5156C33.5963 38.5156 32.7895 38.8498 32.1946 39.4446C31.5998 40.0395 31.2656 40.8463 31.2656 41.6875Z" fill="#C3CED9"/>
<path d="M105.125 18.125H10.875C8.86992 18.125 7.25 19.7449 7.25 21.75V94.25C7.25 96.2551 8.86992 97.875 10.875 97.875H105.125C107.13 97.875 108.75 96.2551 108.75 94.25V21.75C108.75 19.7449 107.13 18.125 105.125 18.125ZM100.594 89.7188H15.4063V85.1988L31.0957 66.5867L48.0992 86.7508L74.5504 55.3945L100.594 86.275V89.7188ZM100.594 75.0148L75.2414 44.95C74.8789 44.5195 74.2219 44.5195 73.8594 44.95L48.0992 75.4906L31.7867 56.1535C31.4242 55.723 30.7672 55.723 30.4047 56.1535L15.4063 73.9387V26.2813H100.594V75.0148Z" fill="#A1AAB2"/>
<path d="M34.4375 51.6563C35.7466 51.6563 37.0429 51.3984 38.2524 50.8974C39.4618 50.3964 40.5608 49.6622 41.4865 48.7365C42.4122 47.8108 43.1464 46.7118 43.6474 45.5024C44.1484 44.2929 44.4063 42.9966 44.4063 41.6875C44.4063 40.3784 44.1484 39.0821 43.6474 37.8726C43.1464 36.6632 42.4122 35.5642 41.4865 34.6385C40.5608 33.7128 39.4618 32.9786 38.2524 32.4776C37.0429 31.9766 35.7466 31.7188 34.4375 31.7188C31.7936 31.7188 29.258 32.769 27.3885 34.6385C25.519 36.508 24.4688 39.0436 24.4688 41.6875C24.4688 44.3314 25.519 46.867 27.3885 48.7365C29.258 50.606 31.7936 51.6563 34.4375 51.6563ZM34.4375 38.5156C36.1934 38.5156 37.6094 39.9316 37.6094 41.6875C37.6094 43.4434 36.1934 44.8594 34.4375 44.8594C32.6816 44.8594 31.2656 43.4434 31.2656 41.6875C31.2656 39.9316 32.6816 38.5156 34.4375 38.5156Z" fill="#A1AAB2"/>
</svg>
