<svg width="41" height="47" viewBox="0 0 41 47" fill="none" xmlns="http://www.w3.org/2000/svg">
<g filter="url(#filter0_d_1142_25689)">
<path d="M20.5124 4C18.475 3.9989 16.4573 4.40604 14.5748 5.19813C12.6922 5.99022 10.9817 7.15174 9.54106 8.61627C8.10038 10.0808 6.95778 11.8196 6.17859 13.7333C5.39941 15.6471 4.99891 17.6981 5 19.7693C4.99988 23.1055 6.04114 26.3556 7.9739 29.0519C9.90665 31.7482 12.6312 33.7514 15.7553 34.7733C16.6515 35.0804 17.456 35.6145 18.0929 36.3252C18.7297 37.0359 19.1781 37.8998 19.3955 38.8355L19.6106 39.6765C19.651 39.8873 19.7622 40.0772 19.9252 40.2138C20.0882 40.3504 20.2929 40.425 20.5041 40.425C20.7139 40.4231 20.9167 40.3476 21.078 40.2111C21.2393 40.0747 21.3493 39.8859 21.3894 39.6765L21.6045 38.8355C21.8219 37.8998 22.2703 37.0359 22.9071 36.3252C23.544 35.6145 24.3485 35.0804 25.2447 34.7733C28.3688 33.7514 31.0934 31.7482 33.0261 29.0519C34.9589 26.3556 36.0001 23.1055 36 19.7693C36 15.5914 34.3691 11.5842 31.4653 8.62764C28.5615 5.67105 24.6223 4.00669 20.5124 4Z" fill="#DFFFB3"/>
</g>
<g clip-path="url(#clip0_1142_25689)">
<path d="M13.25 16C13.25 16.4125 13.5875 16.75 14 16.75C14.4125 16.75 14.75 16.4125 14.75 16V14.5H16.25C16.6625 14.5 17 14.1625 17 13.75C17 13.3375 16.6625 13 16.25 13H14.75V11.5C14.75 11.0875 14.4125 10.75 14 10.75C13.5875 10.75 13.25 11.0875 13.25 11.5V13H11.75C11.3375 13 11 13.3375 11 13.75C11 14.1625 11.3375 14.5 11.75 14.5H13.25V16Z" fill="#337380"/>
<path d="M20.75 22.75C21.9926 22.75 23 21.7426 23 20.5C23 19.2574 21.9926 18.25 20.75 18.25C19.5074 18.25 18.5 19.2574 18.5 20.5C18.5 21.7426 19.5074 22.75 20.75 22.75Z" fill="#337380"/>
<path d="M26.75 14.5H24.3725L23.4425 13.4875C23.165 13.18 22.76 13 22.34 13H17.54C17.6675 13.225 17.75 13.4725 17.75 13.75C17.75 14.575 17.075 15.25 16.25 15.25H15.5V16C15.5 16.825 14.825 17.5 14 17.5C13.7225 17.5 13.475 17.4175 13.25 17.29V25C13.25 25.825 13.925 26.5 14.75 26.5H26.75C27.575 26.5 28.25 25.825 28.25 25V16C28.25 15.175 27.575 14.5 26.75 14.5ZM20.75 24.25C18.68 24.25 17 22.57 17 20.5C17 18.43 18.68 16.75 20.75 16.75C22.82 16.75 24.5 18.43 24.5 20.5C24.5 22.57 22.82 24.25 20.75 24.25Z" fill="#337380"/>
</g>
<defs>
<filter id="filter0_d_1142_25689" x="0" y="0" width="41" height="46.4248" filterUnits="userSpaceOnUse" color-interpolation-filters="sRGB">
<feFlood flood-opacity="0" result="BackgroundImageFix"/>
<feColorMatrix in="SourceAlpha" type="matrix" values="0 0 0 0 0 0 0 0 0 0 0 0 0 0 0 0 0 0 127 0" result="hardAlpha"/>
<feOffset dy="1"/>
<feGaussianBlur stdDeviation="2.5"/>
<feComposite in2="hardAlpha" operator="out"/>
<feColorMatrix type="matrix" values="0 0 0 0 0 0 0 0 0 0 0 0 0 0 0 0 0 0 0.1 0"/>
<feBlend mode="normal" in2="BackgroundImageFix" result="effect1_dropShadow_1142_25689"/>
<feBlend mode="normal" in="SourceGraphic" in2="effect1_dropShadow_1142_25689" result="shape"/>
</filter>
<clipPath id="clip0_1142_25689">
<rect width="16" height="16" fill="white" transform="translate(12 12)"/>
</clipPath>
</defs>
</svg>
