<svg width="41" height="47" viewBox="0 0 41 47" fill="none" xmlns="http://www.w3.org/2000/svg">
<g filter="url(#filter0_d_1142_25685)">
<path d="M20.5124 4C18.475 3.9989 16.4573 4.40604 14.5748 5.19813C12.6922 5.99022 10.9817 7.15174 9.54106 8.61627C8.10038 10.0808 6.95778 11.8196 6.17859 13.7333C5.39941 15.6471 4.99891 17.6981 5 19.7693C4.99988 23.1055 6.04114 26.3556 7.9739 29.0519C9.90665 31.7482 12.6312 33.7514 15.7553 34.7733C16.6515 35.0804 17.456 35.6145 18.0929 36.3252C18.7297 37.0359 19.1781 37.8998 19.3955 38.8355L19.6106 39.6765C19.651 39.8873 19.7622 40.0772 19.9252 40.2138C20.0882 40.3504 20.2929 40.425 20.5041 40.425C20.7139 40.4231 20.9167 40.3476 21.078 40.2111C21.2393 40.0747 21.3493 39.8859 21.3894 39.6765L21.6045 38.8355C21.8219 37.8998 22.2703 37.0359 22.9071 36.3252C23.544 35.6145 24.3485 35.0804 25.2447 34.7733C28.3688 33.7514 31.0934 31.7482 33.0261 29.0519C34.9589 26.3556 36.0001 23.1055 36 19.7693C36 15.5914 34.3691 11.5842 31.4653 8.62764C28.5615 5.67105 24.6223 4.00669 20.5124 4Z" fill="#DFFFB3"/>
</g>
<g clip-path="url(#clip0_1142_25685)">
<path d="M24.5 14.5H23C23 12.8425 21.6575 11.5 20 11.5C18.3425 11.5 17 12.8425 17 14.5H15.5C14.675 14.5 14 15.175 14 16V25C14 25.825 14.675 26.5 15.5 26.5H24.5C25.325 26.5 26 25.825 26 25V16C26 15.175 25.325 14.5 24.5 14.5ZM18.5 17.5C18.5 17.9125 18.1625 18.25 17.75 18.25C17.3375 18.25 17 17.9125 17 17.5V16H18.5V17.5ZM20 13C20.825 13 21.5 13.675 21.5 14.5H18.5C18.5 13.675 19.175 13 20 13ZM23 17.5C23 17.9125 22.6625 18.25 22.25 18.25C21.8375 18.25 21.5 17.9125 21.5 17.5V16H23V17.5Z" fill="#337380"/>
</g>
<defs>
<filter id="filter0_d_1142_25685" x="0" y="0" width="41" height="46.4248" filterUnits="userSpaceOnUse" color-interpolation-filters="sRGB">
<feFlood flood-opacity="0" result="BackgroundImageFix"/>
<feColorMatrix in="SourceAlpha" type="matrix" values="0 0 0 0 0 0 0 0 0 0 0 0 0 0 0 0 0 0 127 0" result="hardAlpha"/>
<feOffset dy="1"/>
<feGaussianBlur stdDeviation="2.5"/>
<feComposite in2="hardAlpha" operator="out"/>
<feColorMatrix type="matrix" values="0 0 0 0 0 0 0 0 0 0 0 0 0 0 0 0 0 0 0.1 0"/>
<feBlend mode="normal" in2="BackgroundImageFix" result="effect1_dropShadow_1142_25685"/>
<feBlend mode="normal" in="SourceGraphic" in2="effect1_dropShadow_1142_25685" result="shape"/>
</filter>
<clipPath id="clip0_1142_25685">
<rect width="16" height="16" fill="white" transform="translate(12 11)"/>
</clipPath>
</defs>
</svg>
