<svg width="41" height="47" viewBox="0 0 41 47" fill="none" xmlns="http://www.w3.org/2000/svg">
<g filter="url(#filter0_d_1142_25687)">
<path d="M20.5124 4C18.475 3.9989 16.4573 4.40604 14.5748 5.19813C12.6922 5.99022 10.9817 7.15174 9.54106 8.61627C8.10038 10.0808 6.95778 11.8196 6.17859 13.7333C5.39941 15.6471 4.99891 17.6981 5 19.7693C4.99988 23.1055 6.04114 26.3556 7.9739 29.0519C9.90665 31.7482 12.6312 33.7514 15.7553 34.7733C16.6515 35.0804 17.456 35.6145 18.0929 36.3252C18.7297 37.0359 19.1781 37.8998 19.3955 38.8355L19.6106 39.6765C19.651 39.8873 19.7622 40.0772 19.9252 40.2138C20.0882 40.3504 20.2929 40.425 20.5041 40.425C20.7139 40.4231 20.9167 40.3476 21.078 40.2111C21.2393 40.0747 21.3493 39.8859 21.3894 39.6765L21.6045 38.8355C21.8219 37.8998 22.2703 37.0359 22.9071 36.3252C23.544 35.6145 24.3485 35.0804 25.2447 34.7733C28.3688 33.7514 31.0934 31.7482 33.0261 29.0519C34.9589 26.3556 36.0001 23.1055 36 19.7693C36 15.5914 34.3691 11.5842 31.4653 8.62764C28.5615 5.67105 24.6223 4.00669 20.5124 4Z" fill="#DFFFB3"/>
</g>
<g clip-path="url(#clip0_1142_25687)">
<path d="M25.8275 16.4225L25.835 16.415L23.4425 14.0225C23.225 13.805 22.865 13.805 22.6475 14.0225C22.43 14.24 22.43 14.6 22.6475 14.8175L23.8325 16.0025C23.045 16.3025 22.5125 17.105 22.6475 18.035C22.7675 18.86 23.4725 19.5275 24.2975 19.6175C24.65 19.655 24.9575 19.595 25.25 19.4675V24.875C25.25 25.2875 24.9125 25.625 24.5 25.625C24.0875 25.625 23.75 25.2875 23.75 24.875V21.5C23.75 20.675 23.075 20 22.25 20H21.5V14.75C21.5 13.925 20.825 13.25 20 13.25H15.5C14.675 13.25 14 13.925 14 14.75V26C14 26.4125 14.3375 26.75 14.75 26.75H20.75C21.1625 26.75 21.5 26.4125 21.5 26V21.125H22.625V24.77C22.625 25.7525 23.33 26.645 24.305 26.7425C25.43 26.855 26.375 25.9775 26.375 24.875V17.75C26.375 17.2325 26.165 16.76 25.8275 16.4225ZM20 18.5H15.5V15.5C15.5 15.0875 15.8375 14.75 16.25 14.75H19.25C19.6625 14.75 20 15.0875 20 15.5V18.5ZM24.5 18.5C24.0875 18.5 23.75 18.1625 23.75 17.75C23.75 17.3375 24.0875 17 24.5 17C24.9125 17 25.25 17.3375 25.25 17.75C25.25 18.1625 24.9125 18.5 24.5 18.5Z" fill="#337380"/>
</g>
<defs>
<filter id="filter0_d_1142_25687" x="0" y="0" width="41" height="46.4248" filterUnits="userSpaceOnUse" color-interpolation-filters="sRGB">
<feFlood flood-opacity="0" result="BackgroundImageFix"/>
<feColorMatrix in="SourceAlpha" type="matrix" values="0 0 0 0 0 0 0 0 0 0 0 0 0 0 0 0 0 0 127 0" result="hardAlpha"/>
<feOffset dy="1"/>
<feGaussianBlur stdDeviation="2.5"/>
<feComposite in2="hardAlpha" operator="out"/>
<feColorMatrix type="matrix" values="0 0 0 0 0 0 0 0 0 0 0 0 0 0 0 0 0 0 0.1 0"/>
<feBlend mode="normal" in2="BackgroundImageFix" result="effect1_dropShadow_1142_25687"/>
<feBlend mode="normal" in="SourceGraphic" in2="effect1_dropShadow_1142_25687" result="shape"/>
</filter>
<clipPath id="clip0_1142_25687">
<rect width="16" height="16" fill="white" transform="translate(12 12)"/>
</clipPath>
</defs>
</svg>
