<svg width="41" height="47" viewBox="0 0 41 47" fill="none" xmlns="http://www.w3.org/2000/svg">
<g filter="url(#filter0_d_1142_25695)">
<path d="M20.5124 4C18.475 3.9989 16.4573 4.40604 14.5748 5.19813C12.6922 5.99022 10.9817 7.15174 9.54106 8.61627C8.10038 10.0808 6.95778 11.8196 6.17859 13.7333C5.39941 15.6471 4.99891 17.6981 5 19.7693C4.99988 23.1055 6.04114 26.3556 7.9739 29.0519C9.90665 31.7482 12.6312 33.7514 15.7553 34.7733C16.6515 35.0804 17.456 35.6145 18.0929 36.3252C18.7297 37.0359 19.1781 37.8998 19.3955 38.8355L19.6106 39.6765C19.651 39.8873 19.7622 40.0772 19.9252 40.2138C20.0882 40.3504 20.2929 40.425 20.5041 40.425C20.7139 40.4231 20.9167 40.3476 21.078 40.2111C21.2393 40.0747 21.3493 39.8859 21.3894 39.6765L21.6045 38.8355C21.8219 37.8998 22.2703 37.0359 22.9071 36.3252C23.544 35.6145 24.3485 35.0804 25.2447 34.7733C28.3688 33.7514 31.0934 31.7482 33.0261 29.0519C34.9589 26.3556 36.0001 23.1055 36 19.7693C36 15.5914 34.3691 11.5842 31.4653 8.62764C28.5615 5.67105 24.6223 4.00669 20.5124 4Z" fill="#DFFFB3"/>
</g>
<g clip-path="url(#clip0_1142_25695)">
<path d="M22.25 19.2504V15.3729C22.25 14.9754 22.0925 14.5929 21.8075 14.3154L20.525 13.0329C20.2325 12.7404 19.76 12.7404 19.4675 13.0329L18.1925 14.3079C17.9075 14.5929 17.75 14.9754 17.75 15.3729V16.2504H14.75C13.925 16.2504 13.25 16.9254 13.25 17.7504V25.2504C13.25 26.0754 13.925 26.7504 14.75 26.7504H25.25C26.075 26.7504 26.75 26.0754 26.75 25.2504V20.7504C26.75 19.9254 26.075 19.2504 25.25 19.2504H22.25ZM16.25 25.2504H14.75V23.7504H16.25V25.2504ZM16.25 22.2504H14.75V20.7504H16.25V22.2504ZM16.25 19.2504H14.75V17.7504H16.25V19.2504ZM20.75 25.2504H19.25V23.7504H20.75V25.2504ZM20.75 22.2504H19.25V20.7504H20.75V22.2504ZM20.75 19.2504H19.25V17.7504H20.75V19.2504ZM20.75 16.2504H19.25V14.7504H20.75V16.2504ZM25.25 25.2504H23.75V23.7504H25.25V25.2504ZM25.25 22.2504H23.75V20.7504H25.25V22.2504Z" fill="#337380"/>
</g>
<defs>
<filter id="filter0_d_1142_25695" x="0" y="0" width="41" height="46.4248" filterUnits="userSpaceOnUse" color-interpolation-filters="sRGB">
<feFlood flood-opacity="0" result="BackgroundImageFix"/>
<feColorMatrix in="SourceAlpha" type="matrix" values="0 0 0 0 0 0 0 0 0 0 0 0 0 0 0 0 0 0 127 0" result="hardAlpha"/>
<feOffset dy="1"/>
<feGaussianBlur stdDeviation="2.5"/>
<feComposite in2="hardAlpha" operator="out"/>
<feColorMatrix type="matrix" values="0 0 0 0 0 0 0 0 0 0 0 0 0 0 0 0 0 0 0.1 0"/>
<feBlend mode="normal" in2="BackgroundImageFix" result="effect1_dropShadow_1142_25695"/>
<feBlend mode="normal" in="SourceGraphic" in2="effect1_dropShadow_1142_25695" result="shape"/>
</filter>
<clipPath id="clip0_1142_25695">
<rect width="18" height="18" fill="white" transform="translate(11 11)"/>
</clipPath>
</defs>
</svg>
