<svg width="41" height="47" viewBox="0 0 41 47" fill="none" xmlns="http://www.w3.org/2000/svg">
<g filter="url(#filter0_d_1354_37160)">
<path d="M20.5124 4C18.475 3.9989 16.4573 4.40604 14.5748 5.19813C12.6922 5.99022 10.9817 7.15174 9.54106 8.61627C8.10038 10.0808 6.95778 11.8196 6.17859 13.7333C5.39941 15.6471 4.99891 17.6981 5 19.7693C4.99988 23.1055 6.04114 26.3556 7.9739 29.0519C9.90665 31.7482 12.6312 33.7514 15.7553 34.7733C16.6515 35.0804 17.456 35.6145 18.0929 36.3252C18.7297 37.0359 19.1781 37.8998 19.3955 38.8355L19.6106 39.6765C19.651 39.8873 19.7622 40.0772 19.9252 40.2138C20.0882 40.3504 20.2929 40.425 20.5041 40.425C20.7139 40.4231 20.9167 40.3476 21.078 40.2111C21.2393 40.0747 21.3493 39.8859 21.3894 39.6765L21.6045 38.8355C21.8219 37.8998 22.2703 37.0359 22.9071 36.3252C23.544 35.6145 24.3485 35.0804 25.2447 34.7733C28.3688 33.7514 31.0934 31.7482 33.0261 29.0519C34.9589 26.3556 36.0001 23.1055 36 19.7693C36 15.5914 34.3691 11.5842 31.4653 8.62764C28.5615 5.67105 24.6223 4.00669 20.5124 4Z" fill="#DFFFB3"/>
</g>
<g clip-path="url(#clip0_1354_37160)">
<path d="M20.5925 13.25H17C16.175 13.25 15.5 13.925 15.5 14.75V25.25C15.5 26.075 16.175 26.75 17 26.75C17.825 26.75 18.5 26.075 18.5 25.25V22.25H20.75C23.4275 22.25 25.565 19.9025 25.2125 17.1575C24.92 14.8925 22.88 13.25 20.5925 13.25ZM20.9 19.25H18.5V16.25H20.9C21.725 16.25 22.4 16.925 22.4 17.75C22.4 18.575 21.725 19.25 20.9 19.25Z" fill="#337380"/>
</g>
<defs>
<filter id="filter0_d_1354_37160" x="0" y="0" width="41" height="46.4248" filterUnits="userSpaceOnUse" color-interpolation-filters="sRGB">
<feFlood flood-opacity="0" result="BackgroundImageFix"/>
<feColorMatrix in="SourceAlpha" type="matrix" values="0 0 0 0 0 0 0 0 0 0 0 0 0 0 0 0 0 0 127 0" result="hardAlpha"/>
<feOffset dy="1"/>
<feGaussianBlur stdDeviation="2.5"/>
<feComposite in2="hardAlpha" operator="out"/>
<feColorMatrix type="matrix" values="0 0 0 0 0 0 0 0 0 0 0 0 0 0 0 0 0 0 0.1 0"/>
<feBlend mode="normal" in2="BackgroundImageFix" result="effect1_dropShadow_1354_37160"/>
<feBlend mode="normal" in="SourceGraphic" in2="effect1_dropShadow_1354_37160" result="shape"/>
</filter>
<clipPath id="clip0_1354_37160">
<rect width="16" height="16" fill="white" transform="translate(12 12)"/>
</clipPath>
</defs>
</svg>
