<svg width="41" height="47" viewBox="0 0 41 47" fill="none" xmlns="http://www.w3.org/2000/svg">
<g filter="url(#filter0_d_1142_25690)">
<path d="M20.5124 4C18.475 3.9989 16.4573 4.40604 14.5748 5.19813C12.6922 5.99022 10.9817 7.15174 9.54106 8.61627C8.10038 10.0808 6.95778 11.8196 6.17859 13.7333C5.39941 15.6471 4.99891 17.6981 5 19.7693C4.99988 23.1055 6.04114 26.3556 7.9739 29.0519C9.90665 31.7482 12.6312 33.7514 15.7553 34.7733C16.6515 35.0804 17.456 35.6145 18.0929 36.3252C18.7297 37.0359 19.1781 37.8998 19.3955 38.8355L19.6106 39.6765C19.651 39.8873 19.7622 40.0772 19.9252 40.2138C20.0882 40.3504 20.2929 40.425 20.5041 40.425C20.7139 40.4231 20.9167 40.3476 21.078 40.2111C21.2393 40.0747 21.3493 39.8859 21.3894 39.6765L21.6045 38.8355C21.8219 37.8998 22.2703 37.0359 22.9071 36.3252C23.544 35.6145 24.3485 35.0804 25.2447 34.7733C28.3688 33.7514 31.0934 31.7482 33.0261 29.0519C34.9589 26.3556 36.0001 23.1055 36 19.7693C36 15.5914 34.3691 11.5842 31.4653 8.62764C28.5615 5.67105 24.6223 4.00669 20.5124 4Z" fill="#DFFFB3"/>
</g>
<g clip-path="url(#clip0_1142_25690)">
<path d="M23 15.5V20C23 20.825 23.675 21.5 24.5 21.5H25.25V26.75C25.25 27.1625 25.5875 27.5 26 27.5C26.4125 27.5 26.75 27.1625 26.75 26.75V13.3475C26.75 12.86 26.2925 12.5 25.82 12.6125C24.2 13.01 23 14.3825 23 15.5ZM19.25 17.75H17.75V13.25C17.75 12.8375 17.4125 12.5 17 12.5C16.5875 12.5 16.25 12.8375 16.25 13.25V17.75H14.75V13.25C14.75 12.8375 14.4125 12.5 14 12.5C13.5875 12.5 13.25 12.8375 13.25 13.25V17.75C13.25 19.4075 14.5925 20.75 16.25 20.75V26.75C16.25 27.1625 16.5875 27.5 17 27.5C17.4125 27.5 17.75 27.1625 17.75 26.75V20.75C19.4075 20.75 20.75 19.4075 20.75 17.75V13.25C20.75 12.8375 20.4125 12.5 20 12.5C19.5875 12.5 19.25 12.8375 19.25 13.25V17.75Z" fill="#337380"/>
</g>
<defs>
<filter id="filter0_d_1142_25690" x="0" y="0" width="41" height="46.4248" filterUnits="userSpaceOnUse" color-interpolation-filters="sRGB">
<feFlood flood-opacity="0" result="BackgroundImageFix"/>
<feColorMatrix in="SourceAlpha" type="matrix" values="0 0 0 0 0 0 0 0 0 0 0 0 0 0 0 0 0 0 127 0" result="hardAlpha"/>
<feOffset dy="1"/>
<feGaussianBlur stdDeviation="2.5"/>
<feComposite in2="hardAlpha" operator="out"/>
<feColorMatrix type="matrix" values="0 0 0 0 0 0 0 0 0 0 0 0 0 0 0 0 0 0 0.1 0"/>
<feBlend mode="normal" in2="BackgroundImageFix" result="effect1_dropShadow_1142_25690"/>
<feBlend mode="normal" in="SourceGraphic" in2="effect1_dropShadow_1142_25690" result="shape"/>
</filter>
<clipPath id="clip0_1142_25690">
<rect width="16" height="16" fill="white" transform="translate(12 12)"/>
</clipPath>
</defs>
</svg>
