<svg width="41" height="47" viewBox="0 0 41 47" fill="none" xmlns="http://www.w3.org/2000/svg">
<g filter="url(#filter0_d_1354_37123)">
<path d="M20.5124 4C18.475 3.9989 16.4573 4.40604 14.5748 5.19813C12.6922 5.99022 10.9817 7.15174 9.54106 8.61627C8.10038 10.0808 6.95778 11.8196 6.17859 13.7333C5.39941 15.6471 4.99891 17.6981 5 19.7693C4.99988 23.1055 6.04114 26.3556 7.9739 29.0519C9.90665 31.7482 12.6312 33.7514 15.7553 34.7733C16.6515 35.0804 17.456 35.6145 18.0929 36.3252C18.7297 37.0359 19.1781 37.8998 19.3955 38.8355L19.6106 39.6765C19.651 39.8873 19.7622 40.0772 19.9252 40.2138C20.0882 40.3504 20.2929 40.425 20.5041 40.425C20.7139 40.4231 20.9167 40.3476 21.078 40.2111C21.2393 40.0747 21.3493 39.8859 21.3894 39.6765L21.6045 38.8355C21.8219 37.8998 22.2703 37.0359 22.9071 36.3252C23.544 35.6145 24.3485 35.0804 25.2447 34.7733C28.3688 33.7514 31.0934 31.7482 33.0261 29.0519C34.9589 26.3556 36.0001 23.1055 36 19.7693C36 15.5914 34.3691 11.5842 31.4653 8.62764C28.5615 5.67105 24.6223 4.00669 20.5124 4Z" fill="#DFFFB3"/>
</g>
<g clip-path="url(#clip0_1354_37123)">
<path d="M14.7509 19.885V21.9925C14.7509 22.54 15.0509 23.05 15.5309 23.3125L19.2809 25.36C19.7309 25.6075 20.2709 25.6075 20.7209 25.36L24.4709 23.3125C24.9509 23.05 25.2509 22.54 25.2509 21.9925V19.885L20.7209 22.36C20.2709 22.6075 19.7309 22.6075 19.2809 22.36L14.7509 19.885ZM19.2809 12.64L12.9584 16.09C12.4409 16.375 12.4409 17.125 12.9584 17.41L19.2809 20.86C19.7309 21.1075 20.2709 21.1075 20.7209 20.86L26.7509 17.5675V22C26.7509 22.4125 27.0884 22.75 27.5009 22.75C27.9134 22.75 28.2509 22.4125 28.2509 22V17.1925C28.2509 16.915 28.1009 16.6675 27.8609 16.5325L20.7209 12.64C20.2709 12.4 19.7309 12.4 19.2809 12.64Z" fill="#337380"/>
</g>
<defs>
<filter id="filter0_d_1354_37123" x="0" y="0" width="41" height="46.4248" filterUnits="userSpaceOnUse" color-interpolation-filters="sRGB">
<feFlood flood-opacity="0" result="BackgroundImageFix"/>
<feColorMatrix in="SourceAlpha" type="matrix" values="0 0 0 0 0 0 0 0 0 0 0 0 0 0 0 0 0 0 127 0" result="hardAlpha"/>
<feOffset dy="1"/>
<feGaussianBlur stdDeviation="2.5"/>
<feComposite in2="hardAlpha" operator="out"/>
<feColorMatrix type="matrix" values="0 0 0 0 0 0 0 0 0 0 0 0 0 0 0 0 0 0 0.1 0"/>
<feBlend mode="normal" in2="BackgroundImageFix" result="effect1_dropShadow_1354_37123"/>
<feBlend mode="normal" in="SourceGraphic" in2="effect1_dropShadow_1354_37123" result="shape"/>
</filter>
<clipPath id="clip0_1354_37123">
<rect width="18" height="18" fill="white" transform="translate(11 11)"/>
</clipPath>
</defs>
</svg>
