<svg width="41" height="47" viewBox="0 0 41 47" fill="none" xmlns="http://www.w3.org/2000/svg">
<g filter="url(#filter0_d_1142_25697)">
<path d="M20.5124 4C18.475 3.9989 16.4573 4.40604 14.5748 5.19813C12.6922 5.99022 10.9817 7.15174 9.54106 8.61627C8.10038 10.0808 6.95778 11.8196 6.17859 13.7333C5.39941 15.6471 4.99891 17.6981 5 19.7693C4.99988 23.1055 6.04114 26.3556 7.9739 29.0519C9.90665 31.7482 12.6312 33.7514 15.7553 34.7733C16.6515 35.0804 17.456 35.6145 18.0929 36.3252C18.7297 37.0359 19.1781 37.8998 19.3955 38.8355L19.6106 39.6765C19.651 39.8873 19.7622 40.0772 19.9252 40.2138C20.0882 40.3504 20.2929 40.425 20.5041 40.425C20.7139 40.4231 20.9167 40.3476 21.078 40.2111C21.2393 40.0747 21.3493 39.8859 21.3894 39.6765L21.6045 38.8355C21.8219 37.8998 22.2703 37.0359 22.9071 36.3252C23.544 35.6145 24.3485 35.0804 25.2447 34.7733C28.3688 33.7514 31.0934 31.7482 33.0261 29.0519C34.9589 26.3556 36.0001 23.1055 36 19.7693C36 15.5914 34.3691 11.5842 31.4653 8.62764C28.5615 5.67105 24.6223 4.00669 20.5124 4Z" fill="#DFFFB3"/>
</g>
<g clip-path="url(#clip0_1142_25697)">
<path d="M27.4253 16.9175L26.6378 14.39C26.4728 13.715 25.8878 13.25 25.2053 13.25H14.7878C14.1128 13.25 13.5203 13.7225 13.3628 14.39L12.5753 16.9175C12.2303 18.395 13.2128 19.25 13.2503 19.295V25.25C13.2503 26.075 13.9253 26.75 14.7503 26.75H25.2503C26.0753 26.75 26.7503 26.075 26.7503 25.25V19.295C27.5903 18.455 27.5678 17.4875 27.4253 16.9175ZM20.7503 14.75H22.2203L22.6253 17.39C22.6928 17.9225 22.3328 18.5 21.6653 18.5C21.1628 18.5 20.7503 18.0575 20.7503 17.5175V14.75ZM15.8303 17.645C15.7703 18.1325 15.3803 18.5 14.9228 18.5C14.2253 18.5 13.9103 17.7725 14.0303 17.27L14.7878 14.75H16.2653L15.8303 17.645ZM19.2503 17.5175C19.2503 18.0575 18.8378 18.5 18.2828 18.5C17.7203 18.5 17.3078 17.975 17.3678 17.39L17.7803 14.75H19.2503V17.5175ZM25.0778 18.5C24.6203 18.5 24.2228 18.1325 24.1703 17.645L23.7353 14.75L25.1828 14.7425L25.9703 17.27C26.0903 17.7725 25.7828 18.5 25.0778 18.5Z" fill="#337380"/>
</g>
<defs>
<filter id="filter0_d_1142_25697" x="0" y="0" width="41" height="46.4248" filterUnits="userSpaceOnUse" color-interpolation-filters="sRGB">
<feFlood flood-opacity="0" result="BackgroundImageFix"/>
<feColorMatrix in="SourceAlpha" type="matrix" values="0 0 0 0 0 0 0 0 0 0 0 0 0 0 0 0 0 0 127 0" result="hardAlpha"/>
<feOffset dy="1"/>
<feGaussianBlur stdDeviation="2.5"/>
<feComposite in2="hardAlpha" operator="out"/>
<feColorMatrix type="matrix" values="0 0 0 0 0 0 0 0 0 0 0 0 0 0 0 0 0 0 0.1 0"/>
<feBlend mode="normal" in2="BackgroundImageFix" result="effect1_dropShadow_1142_25697"/>
<feBlend mode="normal" in="SourceGraphic" in2="effect1_dropShadow_1142_25697" result="shape"/>
</filter>
<clipPath id="clip0_1142_25697">
<rect width="18" height="18" fill="white" transform="translate(11 11)"/>
</clipPath>
</defs>
</svg>
