<svg width="41" height="47" viewBox="0 0 41 47" fill="none" xmlns="http://www.w3.org/2000/svg">
<g filter="url(#filter0_d_1142_25684)">
<path d="M20.5124 4C18.475 3.9989 16.4573 4.40604 14.5748 5.19813C12.6922 5.99022 10.9817 7.15174 9.54106 8.61627C8.10038 10.0808 6.95778 11.8196 6.17859 13.7333C5.39941 15.6471 4.99891 17.6981 5 19.7693C4.99988 23.1055 6.04114 26.3556 7.9739 29.0519C9.90665 31.7482 12.6312 33.7514 15.7553 34.7733C16.6515 35.0804 17.456 35.6145 18.0929 36.3252C18.7297 37.0359 19.1781 37.8998 19.3955 38.8355L19.6106 39.6765C19.651 39.8873 19.7622 40.0772 19.9252 40.2138C20.0882 40.3504 20.2929 40.425 20.5041 40.425C20.7139 40.4231 20.9167 40.3476 21.078 40.2111C21.2393 40.0747 21.3493 39.8859 21.3894 39.6765L21.6045 38.8355C21.8219 37.8998 22.2703 37.0359 22.9071 36.3252C23.544 35.6145 24.3485 35.0804 25.2447 34.7733C28.3688 33.7514 31.0934 31.7482 33.0261 29.0519C34.9589 26.3556 36.0001 23.1055 36 19.7693C36 15.5914 34.3691 11.5842 31.4653 8.62764C28.5615 5.67105 24.6223 4.00669 20.5124 4Z" fill="#DFFFB3"/>
</g>
<g clip-path="url(#clip0_1142_25684)">
<path d="M17.25 24.5C16.425 24.5 15.7575 25.175 15.7575 26C15.7575 26.825 16.425 27.5 17.25 27.5C18.075 27.5 18.75 26.825 18.75 26C18.75 25.175 18.075 24.5 17.25 24.5ZM12.75 13.25C12.75 13.6625 13.0875 14 13.5 14H14.25L16.95 19.6925L15.9375 21.5225C15.39 22.5275 16.11 23.75 17.25 23.75H25.5C25.9125 23.75 26.25 23.4125 26.25 23C26.25 22.5875 25.9125 22.25 25.5 22.25H17.25L18.075 20.75H23.6625C24.225 20.75 24.72 20.4425 24.975 19.9775L27.66 15.11C27.9375 14.615 27.5775 14 27.0075 14H15.9075L15.405 12.9275C15.285 12.665 15.015 12.5 14.73 12.5H13.5C13.0875 12.5 12.75 12.8375 12.75 13.25ZM24.75 24.5C23.925 24.5 23.2575 25.175 23.2575 26C23.2575 26.825 23.925 27.5 24.75 27.5C25.575 27.5 26.25 26.825 26.25 26C26.25 25.175 25.575 24.5 24.75 24.5Z" fill="#337380"/>
</g>
<defs>
<filter id="filter0_d_1142_25684" x="0" y="0" width="41" height="46.4248" filterUnits="userSpaceOnUse" color-interpolation-filters="sRGB">
<feFlood flood-opacity="0" result="BackgroundImageFix"/>
<feColorMatrix in="SourceAlpha" type="matrix" values="0 0 0 0 0 0 0 0 0 0 0 0 0 0 0 0 0 0 127 0" result="hardAlpha"/>
<feOffset dy="1"/>
<feGaussianBlur stdDeviation="2.5"/>
<feComposite in2="hardAlpha" operator="out"/>
<feColorMatrix type="matrix" values="0 0 0 0 0 0 0 0 0 0 0 0 0 0 0 0 0 0 0.1 0"/>
<feBlend mode="normal" in2="BackgroundImageFix" result="effect1_dropShadow_1142_25684"/>
<feBlend mode="normal" in="SourceGraphic" in2="effect1_dropShadow_1142_25684" result="shape"/>
</filter>
<clipPath id="clip0_1142_25684">
<rect width="16" height="16" fill="white" transform="translate(12 12)"/>
</clipPath>
</defs>
</svg>
