<svg width="41" height="47" viewBox="0 0 41 47" fill="none" xmlns="http://www.w3.org/2000/svg">
<g filter="url(#filter0_d_1142_25686)">
<path d="M20.5124 4C18.475 3.9989 16.4573 4.40604 14.5748 5.19813C12.6922 5.99022 10.9817 7.15174 9.54106 8.61627C8.10038 10.0808 6.95778 11.8196 6.17859 13.7333C5.39941 15.6471 4.99891 17.6981 5 19.7693C4.99988 23.1055 6.04114 26.3556 7.9739 29.0519C9.90665 31.7482 12.6312 33.7514 15.7553 34.7733C16.6515 35.0804 17.456 35.6145 18.0929 36.3252C18.7297 37.0359 19.1781 37.8998 19.3955 38.8355L19.6106 39.6765C19.651 39.8873 19.7622 40.0772 19.9252 40.2138C20.0882 40.3504 20.2929 40.425 20.5041 40.425C20.7139 40.4231 20.9167 40.3476 21.078 40.2111C21.2393 40.0747 21.3493 39.8859 21.3894 39.6765L21.6045 38.8355C21.8219 37.8998 22.2703 37.0359 22.9071 36.3252C23.544 35.6145 24.3485 35.0804 25.2447 34.7733C28.3688 33.7514 31.0934 31.7482 33.0261 29.0519C34.9589 26.3556 36.0001 23.1055 36 19.7693C36 15.5914 34.3691 11.5842 31.4653 8.62764C28.5615 5.67105 24.6223 4.00669 20.5124 4Z" fill="#DFFFB3"/>
</g>
<g clip-path="url(#clip0_1142_25686)">
<path d="M25.19 15.5075C25.04 15.065 24.62 14.75 24.125 14.75H22.25V14C22.25 13.5875 21.9125 13.25 21.5 13.25H18.5C18.0875 13.25 17.75 13.5875 17.75 14V14.75H15.875C15.38 14.75 14.9675 15.065 14.81 15.5075L13.3325 19.76C13.28 19.9175 13.25 20.0825 13.25 20.255V25.625C13.25 26.2475 13.7525 26.75 14.375 26.75C14.9975 26.75 15.5 26.2475 15.5 25.625V25.25H24.5V25.625C24.5 26.24 25.0025 26.75 25.625 26.75C26.24 26.75 26.75 26.2475 26.75 25.625V20.255C26.75 20.09 26.72 19.9175 26.6675 19.76L25.19 15.5075ZM15.875 23C15.2525 23 14.75 22.4975 14.75 21.875C14.75 21.2525 15.2525 20.75 15.875 20.75C16.4975 20.75 17 21.2525 17 21.875C17 22.4975 16.4975 23 15.875 23ZM24.125 23C23.5025 23 23 22.4975 23 21.875C23 21.2525 23.5025 20.75 24.125 20.75C24.7475 20.75 25.25 21.2525 25.25 21.875C25.25 22.4975 24.7475 23 24.125 23ZM14.75 19.25L15.875 15.875H24.125L25.25 19.25H14.75Z" fill="#337380"/>
</g>
<defs>
<filter id="filter0_d_1142_25686" x="0" y="0" width="41" height="46.4248" filterUnits="userSpaceOnUse" color-interpolation-filters="sRGB">
<feFlood flood-opacity="0" result="BackgroundImageFix"/>
<feColorMatrix in="SourceAlpha" type="matrix" values="0 0 0 0 0 0 0 0 0 0 0 0 0 0 0 0 0 0 127 0" result="hardAlpha"/>
<feOffset dy="1"/>
<feGaussianBlur stdDeviation="2.5"/>
<feComposite in2="hardAlpha" operator="out"/>
<feColorMatrix type="matrix" values="0 0 0 0 0 0 0 0 0 0 0 0 0 0 0 0 0 0 0.1 0"/>
<feBlend mode="normal" in2="BackgroundImageFix" result="effect1_dropShadow_1142_25686"/>
<feBlend mode="normal" in="SourceGraphic" in2="effect1_dropShadow_1142_25686" result="shape"/>
</filter>
<clipPath id="clip0_1142_25686">
<rect width="16" height="16" fill="white" transform="translate(12 12)"/>
</clipPath>
</defs>
</svg>
